<svg width="138" height="138" viewBox="0 0 138 138" fill="none" xmlns="http://www.w3.org/2000/svg">
<g clip-path="url(#clip0_851_389)">
<path d="M69.0001 81.1281C75.6845 81.1281 81.156 75.6836 81.156 68.9723C81.156 66.3309 80.2935 63.8781 78.865 61.8836C76.6548 58.8379 73.07 56.8164 69.0271 56.8164C64.9841 56.8164 61.3993 58.8109 59.1892 61.8836C57.7607 63.8781 56.8982 66.3309 56.8982 68.9723C56.8712 75.6836 62.3157 81.1281 69.0001 81.1281Z" fill="#737373"/>
<path d="M95.5219 54.1488V43.9605V42.4512H94.0125L83.8242 42.4781L83.8781 54.1758L95.5219 54.1488Z" fill="#737373"/>
<path d="M87.8672 69.0008C87.8672 79.4047 79.4039 87.868 69 87.868C58.5961 87.868 50.1328 79.4047 50.1328 69.0008C50.1328 66.4941 50.6449 64.0953 51.5344 61.9121H41.2383V90.159C41.2383 93.7977 44.2031 96.7625 47.8418 96.7625H90.1582C93.7969 96.7625 96.7617 93.7977 96.7617 90.159V61.9121H86.4656C87.382 64.0953 87.8672 66.4941 87.8672 69.0008Z" fill="#737373"/>
<path d="M69 0C30.8883 0 0 30.8883 0 69C0 107.112 30.8883 138 69 138C107.112 138 138 107.112 138 69C138 30.8883 107.112 0 69 0ZM103.5 61.9113V90.1582C103.5 97.5164 97.5164 103.5 90.1582 103.5H47.8418C40.4836 103.5 34.5 97.5164 34.5 90.1582V61.9113V47.8148C34.5 40.4566 40.4836 34.473 47.8418 34.473H90.1582C97.5164 34.473 103.5 40.4566 103.5 47.8148V61.9113Z" fill="#737373"/>
</g>
<defs>
<clipPath id="clip0_851_389">
<rect width="138" height="138" fill="white"/>
</clipPath>
</defs>
</svg>
