<svg width="138" height="138" viewBox="0 0 138 138" fill="none" xmlns="http://www.w3.org/2000/svg">
<path d="M95.4009 43.2971C95.4268 43.2971 95.4613 43.2971 95.4958 43.2971C96.3971 43.2971 97.2337 43.5774 97.9194 44.0604L97.9065 44.0518C98.4067 44.4874 98.7431 45.0997 98.825 45.7897V45.8027C98.9113 46.3288 98.9587 46.9325 98.9587 47.5492C98.9587 47.8295 98.9501 48.1055 98.9285 48.3815V48.3427C97.9582 58.559 93.7492 83.3344 91.6102 94.7711C90.7046 99.614 88.9235 101.236 87.1985 101.391C83.451 101.74 80.6047 98.9154 76.9736 96.5349C71.2897 92.8046 68.0769 90.4845 62.5612 86.849C56.183 82.653 60.3187 80.3372 63.9498 76.568C64.9029 75.5762 81.4241 60.5471 81.7475 59.1844C81.7648 59.1024 81.7734 59.0119 81.7734 58.917C81.7734 58.5806 81.6483 58.2744 81.4456 58.0415C81.2214 57.8949 80.9411 57.813 80.6478 57.813C80.4538 57.813 80.2683 57.8518 80.0958 57.9165L80.1045 57.9122C79.5352 58.0415 70.456 64.0417 52.8667 75.9126C50.9477 77.4262 48.524 78.3836 45.8848 78.4957H45.8589C42.12 78.0429 38.726 77.2106 35.5046 76.0247L35.8237 76.1282C31.7786 74.8085 28.5658 74.1142 28.8418 71.8804C28.9884 70.7189 30.5898 69.53 33.6459 68.3139C52.4714 60.1115 65.0251 54.7051 71.307 52.0946C78.2372 48.416 86.2713 45.3887 94.7195 43.4265L95.3966 43.2928L95.4009 43.2971ZM68.6979 4.41992C32.8955 4.50617 3.90259 33.5509 3.90259 69.3662C3.90259 105.233 32.9775 134.312 68.8488 134.312C104.72 134.312 133.795 105.238 133.795 69.3662C133.795 33.5509 104.802 4.50617 69.0084 4.41992H68.9998C68.8992 4.41992 68.7985 4.41992 68.6979 4.41992Z" fill="#737373"/>
</svg>
